HIERARCHY
ROOT Hips
{
	OFFSET 62.890800 8.863803 43.568401
	CHANNELS 6 Xposition Yposition Zposition Zrotation Xrotation Yrotation
	JOINT Chest
	{
		OFFSET -0.160400 1.630001 7.806301
		CHANNELS 6 Xposition Yposition Zposition Zrotation Xrotation Yrotation
		JOINT Chest2
		{
			OFFSET 0.000000 0.000000 3.197998
			CHANNELS 6 Xposition Yposition Zposition Zrotation Xrotation Yrotation
			JOINT Neck
			{
				OFFSET 0.000000 0.000001 7.440701
				CHANNELS 6 Xposition Yposition Zposition Zrotation Xrotation Yrotation
				JOINT Head
				{
					OFFSET 0.000000 0.000000 2.173901
					CHANNELS 6 Xposition Yposition Zposition Zrotation Xrotation Yrotation
					End Site
					{
						OFFSET 0.000000 0.000001 10.420303
					}
				}
			}
			JOINT LeftCollar
			{
				OFFSET 2.426399 -1.880099 4.759399
				CHANNELS 6 Xposition Yposition Zposition Zrotation Xrotation Yrotation
				JOINT LeftShoulder
				{
					OFFSET 4.420197 0.000000 0.000000
					CHANNELS 6 Xposition Yposition Zposition Zrotation Xrotation Yrotation
					JOINT LeftElbow
					{
						OFFSET 0.000000 -0.000001 -10.347099
						CHANNELS 6 Xposition Yposition Zposition Zrotation Xrotation Yrotation
						JOINT LeftWrist
						{
							OFFSET 0.000000 -0.000001 -12.496300
							CHANNELS 6 Xposition Yposition Zposition Zrotation Xrotation Yrotation
							End Site
							{
								OFFSET 0.000000 0.000000 -2.173901
							}
						}
					}
				}
			}
			JOINT RightCollar
			{
				OFFSET -2.781502 -1.903799 5.072601
				CHANNELS 6 Xposition Yposition Zposition Zrotation Xrotation Yrotation
				JOINT RightShoulder
				{
					OFFSET -4.012100 0.000000 0.000000
					CHANNELS 6 Xposition Yposition Zposition Zrotation Xrotation Yrotation
					JOINT RightElbow
					{
						OFFSET 0.000000 -0.000001 -10.346600
						CHANNELS 6 Xposition Yposition Zposition Zrotation Xrotation Yrotation
						JOINT RightWrist
						{
							OFFSET 0.000000 -0.000001 -12.562599
							CHANNELS 6 Xposition Yposition Zposition Zrotation Xrotation Yrotation
							End Site
							{
								OFFSET 0.000000 0.000000 -2.173901
							}
						}
					}
				}
			}
		}
	}
	JOINT LeftHip
	{
		OFFSET 2.047997 -0.047200 -2.693199
		CHANNELS 6 Xposition Yposition Zposition Zrotation Xrotation Yrotation
		JOINT LeftKnee
		{
			OFFSET 0.000000 -0.000001 -18.824400
			CHANNELS 6 Xposition Yposition Zposition Zrotation Xrotation Yrotation
			JOINT LeftAnkle
			{
				OFFSET 0.000000 -0.000002 -19.078199
				CHANNELS 6 Xposition Yposition Zposition Zrotation Xrotation Yrotation
				End Site
				{
					OFFSET 0.000000 -9.342100 0.000001
				}
			}
		}
	}
	JOINT RightHip
	{
		OFFSET -2.129898 -0.022300 -2.538300
		CHANNELS 6 Xposition Yposition Zposition Zrotation Xrotation Yrotation
		JOINT RightKnee
		{
			OFFSET 0.000000 -0.000001 -18.644600
			CHANNELS 6 Xposition Yposition Zposition Zrotation Xrotation Yrotation
			JOINT RightAnkle
			{
				OFFSET 0.000000 -0.000002 -18.801399
				CHANNELS 6 Xposition Yposition Zposition Zrotation Xrotation Yrotation
				End Site
				{
					OFFSET 0.000000 -8.914600 0.000001
				}
			}
		}
	}
}
MOTION
Frames: 6
Frame Time: 0.041667
30.862095 -4.169909 20.856209 77.682917 52.292925 -14.821181 -0.160401 1.630000 7.806305 -28.988545 31.580315 -7.676237 0.000002 0.000002 3.198000 17.720776 -10.357439 2.132217 -0.000008 -0.000002 7.440701 -4.161816 18.315770 -0.875045 -0.000003 0.000003 2.173908 2.555696 6.318801 0.793213 2.426394 -1.880097 4.759398 -16.323898 17.153108 -3.865782 4.420199 0.000001 -0.000001 -53.068671 8.827221 -96.158135 0.000000 -0.000001 -10.347094 17.697298 -22.434612 5.262952 -0.000005 0.000006 -12.496301 -129.779140 21.538404 29.535312 -2.781508 -1.903798 5.072608 1.435028 7.307765 -15.660372 -4.012101 0.000004 -0.000003 61.905693 1.909151 94.268987 -0.000002 -0.000002 -10.346602 -4.323990 -12.696143 -7.652025 0.000000 0.000003 -12.562603 55.193215 -0.078187 43.831455 2.047993 -0.047195 -2.693201 111.294743 -17.777902 76.936159 -0.000000 0.000001 -18.824402 0.303439 154.903937 -30.767888 0.000002 -0.000001 -19.078199 2.360180 17.290368 12.634520 -2.129895 -0.022297 -2.538301 -154.833449 -1.889115 -143.184520 -0.000002 0.000000 -18.644594 -27.854543 139.590407 61.433549 0.000005 0.000005 -18.801397 -7.307251 12.506282 -19.545570
30.806194 -4.264911 20.799507 77.831604 52.137730 -14.547815 -0.160400 1.630001 7.806296 -28.459175 32.212330 -8.276326 0.000009 0.000008 3.198005 17.256003 -10.540379 2.076576 -0.000004 0.000001 7.440700 -4.447965 20.812498 -0.486449 0.000000 0.000000 2.173906 2.571823 6.500770 0.427638 2.426401 -1.880103 4.759398 -15.991913 16.930082 -3.985076 4.420188 0.000003 -0.000005 -52.704257 9.171868 -96.090359 -0.000000 0.000006 -10.347101 18.501517 -22.694499 5.729453 -0.000001 -0.000003 -12.496298 -130.107235 21.621123 29.727326 -2.781502 -1.903801 5.072609 1.373874 7.393436 -15.822067 -4.012103 0.000004 -0.000001 62.258458 1.501778 94.532154 -0.000008 0.000002 -10.346600 -3.000488 -12.949669 -7.394602 0.000000 0.000001 -12.562599 54.223571 0.340257 44.874367 2.047994 -0.047194 -2.693204 111.208717 -18.524187 77.034268 0.000000 0.000002 -18.824404 0.102399 154.640114 -30.342948 0.000002 -0.000002 -19.078199 2.633152 17.386883 12.070853 -2.129899 -0.022300 -2.538300 -154.629773 -1.803434 -142.886287 -0.000000 -0.000001 -18.644600 -27.799003 139.949961 61.440803 -0.000005 0.000001 -18.801399 -7.708819 12.322164 -19.813453
30.749802 -4.361320 20.736113 77.848850 51.840927 -14.189028 -0.160398 1.630002 7.806302 -28.198566 32.781872 -8.696025 0.000007 0.000003 3.197999 17.127095 -10.700627 2.061022 0.000000 0.000006 7.440704 -4.515085 22.917735 -0.478239 -0.000004 0.000004 2.173911 2.492133 6.658984 0.320988 2.426400 -1.880096 4.759400 -15.766054 16.726128 -3.971354 4.420196 0.000001 0.000004 -52.576563 9.647538 -96.014606 -0.000001 -0.000003 -10.347100 18.944901 -22.765685 6.001830 -0.000002 0.000002 -12.496293 -130.072538 21.594123 29.691536 -2.781500 -1.903794 5.072613 1.467519 7.513918 -15.995926 -4.012099 0.000001 -0.000005 62.372454 1.109222 94.656470 -0.000004 0.000001 -10.346598 -1.720842 -13.108569 -7.251350 0.000005 0.000000 -12.562590 53.077359 0.846101 46.211612 2.047996 -0.047198 -2.693201 111.138536 -19.268594 77.073972 -0.000000 0.000001 -18.824406 -0.113569 154.475492 -29.910119 0.000000 -0.000003 -19.078199 3.002985 17.610002 11.532527 -2.129896 -0.022298 -2.538299 -154.395743 -1.824752 -142.528344 -0.000002 0.000002 -18.644594 -27.756641 140.433880 61.451465 0.000003 0.000001 -18.801401 -8.169470 12.028826 -20.168864
30.695095 -4.455909 20.670607 77.819849 51.459779 -13.872785 -0.160400 1.629998 7.806308 -28.215259 33.243757 -8.882765 0.000003 0.000001 3.197999 17.327823 -10.808927 2.086491 -0.000004 0.000003 7.440702 -4.408735 24.543875 -0.807728 0.000000 0.000003 2.173909 2.260872 6.801419 0.314553 2.426399 -1.880102 4.759402 -15.759635 16.690320 -3.925652 4.420194 0.000002 -0.000006 -52.549310 9.999254 -95.942363 0.000008 0.000005 -10.347096 19.144802 -22.739756 6.108733 -0.000003 -0.000002 -12.496300 -129.881347 21.368836 29.614577 -2.781506 -1.903800 5.072598 1.612221 7.609813 -16.231180 -4.012100 0.000002 -0.000005 62.215394 0.854320 94.694788 -0.000005 -0.000001 -10.346590 -0.747345 -13.223665 -7.167789 -0.000009 0.000001 -12.562599 52.039771 1.291648 47.580085 2.047998 -0.047198 -2.693195 111.071539 -19.894931 77.093178 0.000003 -0.000002 -18.824408 -0.275935 154.512881 -29.629887 -0.000000 -0.000002 -19.078199 3.516848 17.885105 11.221851 -2.129894 -0.022300 -2.538300 -154.163366 -1.936996 -142.192435 -0.000003 0.000002 -18.644594 -27.688086 140.909548 61.429437 0.000000 -0.000004 -18.801399 -8.627629 11.739632 -20.394564
30.640991 -4.548711 20.605911 77.881936 51.031096 -13.697917 -0.160399 1.629999 7.806301 -28.458854 33.630339 -8.893726 0.000008 0.000003 3.198000 17.758282 -10.873978 2.140844 -0.000010 0.000001 7.440699 -4.627997 25.830432 -1.031562 -0.000004 -0.000000 2.173903 2.266715 6.813740 0.194411 2.426397 -1.880100 4.759397 -16.084578 16.927461 -3.797125 4.420196 0.000001 -0.000006 -52.436704 10.166698 -96.019756 -0.000002 0.000003 -10.347095 19.210136 -22.584270 6.067712 0.000001 0.000002 -12.496298 -129.801967 21.429208 29.603303 -2.781506 -1.903799 5.072598 1.569427 7.561128 -16.420579 -4.012093 0.000006 0.000002 62.000837 0.714336 94.549291 -0.000003 -0.000002 -10.346596 0.016397 -13.352010 -7.139556 -0.000000 0.000000 -12.562599 51.136028 1.635153 48.817910 2.047996 -0.047201 -2.693202 110.950091 -20.439157 77.113109 -0.000002 0.000005 -18.824406 -0.368280 154.683158 -29.521888 0.000001 -0.000001 -19.078196 3.739801 18.120946 10.998000 -2.129894 -0.022298 -2.538303 -153.985536 -2.079121 -141.888724 0.000000 0.000001 -18.644598 -27.557619 141.357090 61.364243 -0.000001 -0.000004 -18.801403 -9.059548 11.260896 -20.899028
30.569592 -4.640610 20.537712 78.043715 50.615407 -13.662454 -0.160398 1.629998 7.806305 -28.851252 33.926772 -8.774426 0.000008 0.000001 3.198001 18.256532 -10.897329 2.200715 -0.000005 0.000006 7.440695 -4.791507 26.691409 -1.390944 -0.000004 0.000004 2.173905 2.213081 6.839328 0.056571 2.426403 -1.880097 4.759391 -16.597508 17.279890 -3.666284 4.420199 0.000001 0.000004 -52.204649 10.130899 -96.129182 -0.000001 -0.000005 -10.347090 19.143349 -22.383940 5.928463 -0.000003 0.000008 -12.496303 -129.747530 21.491376 29.594643 -2.781502 -1.903795 5.072596 1.381689 7.400094 -16.475007 -4.012100 0.000000 -0.000005 61.871296 0.582761 94.208205 -0.000007 0.000001 -10.346591 0.427871 -13.424237 -7.155839 -0.000005 -0.000002 -12.562595 50.601224 1.881531 49.838429 2.047997 -0.047193 -2.693196 111.194079 -20.236747 77.353559 0.000009 0.000004 -18.824406 -0.774282 155.314035 -29.673357 0.000009 -0.000001 -19.078201 4.080726 18.209356 11.219838 -2.129899 -0.022298 -2.538302 -153.968993 -2.417309 -141.667399 -0.000000 0.000004 -18.644596 -27.679367 141.742408 61.369427 -0.000000 -0.000003 -18.801399 -9.506250 10.727992 -21.496490
